<?xml version="1.0" encoding="UTF-8"?>
<svg id="Layer_1" xmlns="http://www.w3.org/2000/svg" version="1.1" viewBox="0 0 908.54 1006.04">
  <!-- Generator: Adobe Illustrator 29.8.3, SVG Export Plug-In . SVG Version: 2.1.1 Build 3)  -->
  <defs>
    <style>
      .st0 {
        fill: #fff;
      }

      .st1 {
        fill: #1f99ef;
      }
    </style>
  </defs>
  <path class="st1" d="M461.27,552.92c-.82-.06-1.65-.16-2.47-.3-25.13-4.31-46.23-16.66-61.01-35.72-13.17-16.97-20.5-38.6-20.64-60.89-.14-22.3,6.92-44.01,19.88-61.15,14.55-19.25,35.49-31.86,60.56-36.48.08-.01.16-.03.24-.04,4.17-.73,8.41-1.2,12.59-1.39.39-.02.78-.03,1.17-.03h274.95v-44.52h-322.54v-62.56h322.54c20.65-160.36-264.22-326.18-487.75-211.99C35.26,152.02,80.52,347.91,80.52,347.91c0,0-62.87,102.65-76.84,127.25-13.97,24.6,15.19,33.71,31.59,36.44,16.4,2.73,31.89,4.56,22.78,41-9.11,36.44,23.39,36.14,23.39,36.14-16.7,11.54-19.44,21.87-7.59,41.91,11.84,20.04,1.52,44.95,1.52,44.95-3.24,57.5,27.54,59.12,55.07,63.17,27.54,4.05,177.36-72.08,177.36-72.08l12.15-213,11.34,208.95,116.62-31.59-217.05,99.62s27.54,24.3,41.3,36.44c13.77,12.15,8.91,25.92,8.91,25.92l-5.67,115-31.59,59.93,248.14-75.32v-334.28l9.72-9.3c-8.4,3.39-17.43,5.21-26.6,5.21-4.64,0-9.25-.46-13.79-1.37Z"/>
  <path class="st0" d="M839.06,381.8h-367.47c-3.22.15-6.39.51-9.49,1.05-80.55,14.85-79.88,131.35.91,145.22-.17-.17-.33-.32-.5-.47,29.23,8.47,60.52-14.29,58.29-46.15-1.19-28.57-31.16-49.44-58.32-40.75,16.43-16.54,44.25-19.83,65.53-10.33v42.37h-.03v533.31l49.4-47.04v-476.14h18.85v460.46l49.4-47.04v-413.42h18.85v397.74l49.4-47.04v-350.69h18.85v335.01l49.4-47.04v-298.09h-.03v-42.13c21.33-9.8,49.49-6.58,66.06,10.1-28.38-8.97-58.92,13.54-58.41,43.44-.42,30.61,30.16,51.63,58.4,43.46-.17.15-.33.3-.51.46,86.1-15.32,78.75-141.14-8.59-146.25Z"/>
</svg>