<?xml version="1.0" encoding="UTF-8"?>
<svg id="Layer_1" xmlns="http://www.w3.org/2000/svg" version="1.1" viewBox="0 0 1669.42 575.28">
  <!-- Generator: Adobe Illustrator 29.8.3, SVG Export Plug-In . SVG Version: 2.1.1 Build 3)  -->
  <defs>
    <style>
      .st0 {
        fill: #fff;
      }

      .st1 {
        fill: #1f99ef;
      }
    </style>
  </defs>
  <g>
    <path class="st1" d="M263.77,316.17c-.47-.03-.94-.09-1.41-.17-14.37-2.47-26.43-9.53-34.89-20.43-7.53-9.71-11.72-22.07-11.8-34.82-.08-12.75,3.96-25.17,11.37-34.97,8.32-11.01,20.29-18.22,34.63-20.86.05,0,.09-.02.14-.02,2.39-.42,4.81-.68,7.2-.8.22-.01.45-.02.67-.02h157.23v-25.46h-184.44v-35.78h184.44c11.81-91.7-151.09-186.52-278.91-121.22C20.17,86.93,46.04,198.95,46.04,198.95c0,0-35.95,58.7-43.94,72.77-7.99,14.07,8.68,19.28,18.06,20.84,9.38,1.56,18.24,2.61,13.03,23.45-5.21,20.84,13.37,20.67,13.37,20.67-9.55,6.6-11.11,12.5-4.34,23.97,6.77,11.46.87,25.7.87,25.7-1.85,32.88,15.75,33.81,31.49,36.12,15.75,2.32,101.42-41.22,101.42-41.22l6.95-121.8,6.48,119.48,66.69-18.06-124.11,56.96s15.75,13.89,23.62,20.84c7.87,6.95,5.09,14.82,5.09,14.82l-3.24,65.76-18.06,34.27,141.9-43.07v-191.15l5.56-5.32c-4.8,1.94-9.96,2.98-15.21,2.98-2.65,0-5.29-.26-7.89-.78Z"/>
    <path class="st0" d="M479.8,218.33h-210.13c-1.84.09-3.66.29-5.43.6-46.06,8.49-45.68,75.11.52,83.04-.1-.09-.19-.18-.28-.27,16.71,4.84,34.61-8.17,33.33-26.39-.68-16.34-17.82-28.27-33.35-23.3,9.39-9.46,25.31-11.34,37.47-5.91v24.23h-.02v304.96l28.25-26.9v-272.27h10.78v263.3l28.25-26.9v-236.4h10.78v227.44l28.25-26.9v-200.54h10.78v191.57l28.25-26.9v-170.46h-.02v-24.09c12.2-5.6,28.3-3.76,37.78,5.78-16.23-5.13-33.69,7.74-33.4,24.84-.24,17.51,17.25,29.53,33.39,24.85-.09.09-.19.17-.29.26,49.24-8.76,45.03-80.71-4.91-83.63Z"/>
  </g>
  <g>
    <path class="st0" d="M757.89,384.1h-145.18v-192.92h34.98v163.22h110.2v29.7Z"/>
    <path class="st0" d="M1050.13,384.1h-251.81v-192.92h249.87v29.7h-214.89v48.3h205.46v29.7h-205.46v55.8h216.84v29.42Z"/>
    <path class="st0" d="M1304.95,384.1h-38.86l-48.02-85.22h-28.59l-48.3,85.22h-38.86l56.91-99.65-52.46-93.27h38.86l43.03,77.72h29.98l43.03-77.72h39.14l-52.46,93.55,56.63,99.38Z"/>
    <path class="st0" d="M1397.66,384.1h-34.98v-192.92h34.98v192.92Z"/>
    <path class="st0" d="M1669.42,384.1h-35.81l-17.21-48.86h-111.03l-17.21,48.86h-35.53l67.73-192.92h81.61l67.45,192.92ZM1545.62,221.16l-29.7,84.39h90.22l-29.7-84.39h-30.81Z"/>
  </g>
</svg>