<?xml version="1.0" encoding="UTF-8"?>
<svg id="Layer_1" xmlns="http://www.w3.org/2000/svg" version="1.1" viewBox="0 0 1507.42 575.28">
  <!-- Generator: Adobe Illustrator 29.8.3, SVG Export Plug-In . SVG Version: 2.1.1 Build 3)  -->
  <defs>
    <style>
      .st0 {
        fill: #fff;
      }

      .st1 {
        fill: #1f99ef;
      }
    </style>
  </defs>
  <g>
    <path class="st1" d="M263.77,316.17c-.47-.03-.94-.09-1.41-.17-14.37-2.47-26.43-9.53-34.89-20.43-7.53-9.71-11.72-22.07-11.8-34.82-.08-12.75,3.96-25.17,11.37-34.97,8.32-11.01,20.29-18.22,34.63-20.86.05,0,.09-.02.14-.02,2.39-.42,4.81-.68,7.2-.8.22-.01.45-.02.67-.02h157.23v-25.46h-184.44v-35.78h184.44c11.81-91.7-151.09-186.52-278.91-121.22C20.17,86.93,46.04,198.95,46.04,198.95c0,0-35.95,58.7-43.94,72.77-7.99,14.07,8.68,19.28,18.06,20.84,9.38,1.56,18.24,2.61,13.03,23.45-5.21,20.84,13.37,20.67,13.37,20.67-9.55,6.6-11.11,12.5-4.34,23.97,6.77,11.46.87,25.7.87,25.7-1.85,32.88,15.75,33.81,31.49,36.12,15.75,2.32,101.42-41.22,101.42-41.22l6.95-121.8,6.48,119.48,66.69-18.06-124.11,56.96s15.75,13.89,23.62,20.84c7.87,6.95,5.09,14.82,5.09,14.82l-3.24,65.76-18.06,34.27,141.9-43.07v-191.15l5.56-5.32c-4.8,1.94-9.96,2.98-15.21,2.98-2.65,0-5.29-.26-7.89-.78Z"/>
    <path class="st0" d="M479.8,218.33h-210.13c-1.84.09-3.66.29-5.43.6-46.06,8.49-45.68,75.11.52,83.04-.1-.09-.19-.18-.28-.27,16.71,4.84,34.61-8.17,33.33-26.39-.68-16.34-17.82-28.27-33.35-23.3,9.39-9.46,25.31-11.34,37.47-5.91v24.23h-.02v304.96l28.25-26.9v-272.27h10.78v263.3l28.25-26.9v-236.4h10.78v227.44l28.25-26.9v-200.54h10.78v191.57l28.25-26.9v-170.46h-.02v-24.09c12.2-5.6,28.3-3.76,37.78,5.78-16.23-5.13-33.69,7.74-33.4,24.84-.24,17.51,17.25,29.53,33.39,24.85-.09.09-.19.17-.29.26,49.24-8.76,45.03-80.71-4.91-83.63Z"/>
  </g>
  <g>
    <path class="st0" d="M695.54,373.56h-129.31v-171.83h31.15v145.38h98.15v26.45Z"/>
    <path class="st0" d="M955.83,373.56h-224.29v-171.83h222.55v26.45h-191.4v43.02h183v26.45h-183v49.7h193.13v26.21Z"/>
    <path class="st0" d="M1182.8,373.56h-34.61l-42.77-75.9h-25.47l-43.02,75.9h-34.61l50.68-88.76-46.73-83.07h34.61l38.32,69.23h26.7l38.32-69.23h34.86l-46.73,83.32,50.44,88.51Z"/>
    <path class="st0" d="M1265.37,373.56h-31.15v-171.83h31.15v171.83Z"/>
    <path class="st0" d="M1507.42,373.56h-31.89l-15.33-43.51h-98.9l-15.33,43.51h-31.65l60.33-171.83h72.69l60.08,171.83ZM1397.15,228.43l-26.45,75.16h80.35l-26.45-75.16h-27.44Z"/>
  </g>
</svg>